<?xml version="1.0" standalone="no"?>
<!DOCTYPE svg PUBLIC "-//W3C//DTD SVG 20010904//EN"
 "http://www.w3.org/TR/2001/REC-SVG-20010904/DTD/svg10.dtd">
<svg version="1.0" xmlns="http://www.w3.org/2000/svg"
 width="512.000000pt" height="512.000000pt" viewBox="0 0 512.000000 512.000000"
 preserveAspectRatio="xMidYMid meet">
<metadata>
Created by potrace 1.14, written by Peter Selinger 2001-2017
</metadata>
<g transform="translate(0.000000,512.000000) scale(0.100000,-0.100000)"
fill="#000000" stroke="none">
<path d="M2794 3740 c-438 -78 -836 -289 -1178 -624 l-81 -79 -70 1 c-195 2
-549 1 -620 -3 -268 -14 -317 -17 -439 -30 -44 -5 -71 -25 -80 -61 -10 -36 36
-292 74 -419 101 -335 290 -617 572 -851 115 -96 324 -208 473 -254 185 -57
83 -54 1754 -56 1664 -3 1583 -5 1597 50 3 13 3 39 0 57 -3 19 -10 67 -17 108
-6 41 -38 169 -70 285 -65 228 -88 276 -160 331 l-40 30 6 80 c4 44 8 82 10
85 2 3 6 43 10 90 4 47 8 87 10 90 2 3 6 45 10 94 l7 89 -104 101 c-422 411
-898 724 -1300 857 -147 49 -220 55 -364 29z m305 -180 c105 -34 261 -99 261
-109 0 -3 -18 -19 -40 -35 -53 -40 -196 -185 -261 -266 -43 -53 -149 -210
-194 -285 -9 -16 -15 -16 -70 -1 -33 8 -76 18 -95 21 -19 3 -42 8 -51 11 -9 2
-32 7 -50 9 -19 3 -45 7 -59 10 -55 11 -218 38 -307 50 -161 22 -225 29 -333
40 -125 12 -143 14 -146 18 -5 4 159 145 206 178 19 13 37 27 40 30 13 15 165
108 246 151 196 103 402 173 599 203 103 15 144 11 254 -25z m569 -279 c197
-125 489 -357 654 -520 l76 -76 -14 -115 c-7 -63 -16 -146 -20 -185 -3 -38 -7
-71 -9 -73 -1 -1 -46 20 -101 46 -54 27 -153 73 -219 102 -66 28 -134 58 -152
66 -45 20 -311 119 -358 133 -22 7 -49 16 -60 21 -25 11 -188 60 -329 100 -60
16 -111 31 -113 33 -5 5 137 209 187 268 70 83 155 165 237 230 l75 59 36 -21
c21 -12 70 -43 110 -68z m-1001 -745 c76 -39 133 -132 133 -216 0 -126 -113
-240 -238 -240 -88 0 -174 55 -216 139 -38 75 -26 184 27 251 19 25 80 67 112
78 42 14 144 7 182 -12z m701 -243 c41 -30 63 -66 69 -111 20 -150 -160 -239
-267 -132 -77 77 -59 197 38 250 46 25 121 22 160 -7z"/>
</g>
</svg>
